# xmcd
#
# Track frame offsets: 
#        150
#        10567
#        20685
#        32807
#        44385
#        55585
#        66522
#        75872
#        88127
#        97560
#        109735
#        121587
#        134052
#        144362
#        154467
#        163707
#        175002
#        185715
#        197515
#        207692
#        217805
#        230632
#        241292
#
# Disc length: 3345 seconds
#
# Revision: 3
# Processed by: cddbd v1.5.2PL0 Copyright (c) Steve Scherf et al.
# Submitted via: ExactAudioCopy v1.1
#
DISCID=350d0f17
DTITLE=Loretta Lynn - Honky Tonk Girl (The Loretta Lynn Collection) - 
DTITLE=Disc 1
DYEAR=1994
DGENRE=Country
TTITLE0=I'm A Honky Tonk Girl (mono)
TTITLE1=Whispering Sea (mono)
TTITLE2=Success (stereo)
TTITLE3=Before I'm Over You (stereo)
TTITLE4=The Other Woman (stereo)
TTITLE5=This Haunted House (stereo)
TTITLE6=Wine, Women And Song (stereo)
TTITLE7=Ernest Tubb and Loretta Lynn - Mr. And Mrs. Used To Be (stereo)
TTITLE8=Happy Birthday (stereo)
TTITLE9=Blue Kentucky Girl (stereo)
TTITLE10=Ernest Tubb and Loretta Lynn - Our Hearts Are Holding Hands (st
TTITLE10=ereo)
TTITLE11=The Home You're Tearin' Down (stereo)
TTITLE12=Dear Uncle Sam (stereo)
TTITLE13=You Ain't Woman Enough (stereo)
TTITLE14=A Man I Hardly Know (stereo)
TTITLE15=Talking To The Wall (stereo)
TTITLE16=These Boots Are Made For Walking (stereo)
TTITLE17=The Darkest Day (stereo)
TTITLE18=The Devil Gets His Due (stereo)
TTITLE19=The Shoe Goes On The Other Foot Tonight (stereo)
TTITLE20=Tomorrow Never Comes (stereo)
TTITLE21=If Loneliness Can Kill Me (stereo)
TTITLE22=Don't Come Home A'Drinkin' (With Lovin' On Your Mind) (stereo
TTITLE22=)
EXTD=
EXTT0=
EXTT1=
EXTT2=
EXTT3=
EXTT4=
EXTT5=
EXTT6=
EXTT7=
EXTT8=
EXTT9=
EXTT10=
EXTT11=
EXTT12=
EXTT13=
EXTT14=
EXTT15=
EXTT16=
EXTT17=
EXTT18=
EXTT19=
EXTT20=
EXTT21=
EXTT22=
PLAYORDER=
